<svg width="86" height="34" viewBox="0 0 86 34" fill="none" xmlns="http://www.w3.org/2000/svg">
<path d="M35.063 31.4464C37.2366 21.1097 44.8522 5.73361 46.9936 4.94468C49.135 4.15574 43.4997 20.1598 42.1151 22.3495C40.7304 24.5392 43.3548 17.6803 41.616 16.5855C40.2249 15.7096 41.0363 18.0131 41.616 19.2743C42.029 20.514 45.8826 16.4245 46.2369 16.3278C46.5911 16.2312 46.3013 18.2116 47.541 18.5175C48.7808 18.8235 49.0384 16.988 49.8273 17.1329C50.6162 17.2778 49.618 19.2743 50.5196 19.2743C51.4213 19.2743 51.5179 16.5855 52.5644 16.5855C53.611 16.5855 51.1798 19.9183 52.5644 20.6589C53.9491 21.3996 54.738 17.1651 55.7845 17.4227C56.8311 17.6803 56.0744 20.2081 57.9742 20.6589C59.8741 21.1097 64.3984 4.23625 67.2321 4.59046C70.0658 4.94468 61.3554 19.2582 62.4502 20.1598C63.3261 20.8811 64.3018 18.0184 65.5416 17.6642C67.1671 17.1998 64.5111 19.9666 66.1856 19.9666C67.8559 19.9666 66.7491 19.2743 68.0533 19.0328C69.3674 18.7894 67.6829 20.353 68.8744 20.6589C70.0658 20.9648 70.1141 19.2743 70.7582 19.2743C71.4022 19.2743 70.404 20.9165 71.4988 20.9648C72.5936 21.0131 72.1106 19.1616 73.3987 19.6607C74.6867 20.1598 73.3987 21.0453 75.0409 21.303C76.6832 21.5606 79.3076 20.5462 81.6422 21.303C83.5099 21.9083 84.6101 21.3298 84.9268 20.9648" stroke="white" stroke-width="1.44906" stroke-linecap="round" stroke-linejoin="round"/>
<path d="M14.7445 1C12.6998 8.35801 4.52539 28.3497 1.47699 32.831C-0.438987 34.7148 3.86077 20.2886 6.51725 17.3744C7.80474 15.962 8.70832 17.4549 8.02137 19.1133C10.034 17.7125 10.7355 17.4227 11.0897 17.3744C11.4439 17.3261 11.6049 18.598 12.1362 18.598C12.6676 18.598 13.1506 17.3744 14.1005 17.3744C15.0505 17.3744 14.9217 18.598 15.9682 18.598C17.0147 18.598 18.496 15.9736 19.6714 15.8931C20.8467 15.8126 19.4556 17.9344 20.3637 18.598C21.2009 19.2099 25.7574 18.9361 27.1582 18.3726" stroke="white" stroke-width="1.44906" stroke-linecap="round" stroke-linejoin="round"/>
</svg>
