<svg width="86" height="34" viewBox="0 0 86 34" fill="none" xmlns="http://www.w3.org/2000/svg">
<path d="M35 31C37.1795 20.9949 44.816 6.11181 46.9632 5.34818C49.1104 4.58455 43.4598 20.0754 42.0714 22.1948C40.6829 24.3143 43.3145 17.6754 41.5709 16.6157C40.176 15.7679 40.9897 17.9975 41.5709 19.2182C41.985 20.4182 45.8492 16.4598 46.2044 16.3663C46.5596 16.2728 46.269 18.1897 47.5121 18.4858C48.7552 18.7819 49.0136 17.0053 49.8046 17.1455C50.5957 17.2858 49.5948 19.2182 50.4989 19.2182C51.403 19.2182 51.4998 16.6157 52.5492 16.6157C53.5986 16.6157 51.1608 19.8416 52.5492 20.5585C53.9377 21.2754 54.7288 17.1767 55.7782 17.426C56.8276 17.6754 56.0688 20.1221 57.9738 20.5585C59.8789 20.9949 64.4156 4.66247 67.257 5.00532C70.0985 5.34818 61.3642 19.2027 62.4621 20.0754C63.3403 20.7736 64.3187 18.0027 65.5618 17.6598C67.1918 17.2103 64.5286 19.8884 66.2076 19.8884C67.8825 19.8884 66.7727 19.2182 68.0804 18.9845C69.3981 18.7489 67.7091 20.2624 68.9038 20.5585C70.0985 20.8546 70.1469 19.2182 70.7927 19.2182C71.4385 19.2182 70.4375 20.8078 71.5354 20.8546C72.6332 20.9013 72.1489 19.1092 73.4404 19.5923C74.732 20.0754 73.4404 20.9325 75.0872 21.1819C76.7339 21.4312 79.3655 20.4494 81.7065 21.1819C83.5793 21.7678 84.6825 21.2078 85 20.8546" stroke="white" stroke-width="1.44906" stroke-linecap="round" stroke-linejoin="round"/>
<path d="M14.6614 1C12.629 8.35801 4.50407 28.3497 1.47411 32.831C-0.430285 34.7148 3.84347 20.2886 6.48388 17.3744C7.76359 15.962 8.66171 17.4549 7.97891 19.1133C9.97933 17.7125 10.6766 17.4227 11.0287 17.3744C11.3808 17.3261 11.5408 18.598 12.0689 18.598C12.597 18.598 13.0771 17.3744 14.0213 17.3744C14.9655 17.3744 14.8375 18.598 15.8777 18.598C16.9179 18.598 18.3902 15.9736 19.5585 15.8931C20.7267 15.8126 19.344 17.9344 20.2466 18.598C21.0788 19.2099 25.6077 18.9361 27 18.3726" stroke="white" stroke-width="1.44906" stroke-linecap="round" stroke-linejoin="round"/>
</svg>
