<svg width="86" height="34" viewBox="0 0 86 34" fill="none" xmlns="http://www.w3.org/2000/svg">
<path d="M35.0918 31.4464C37.2673 21.1097 44.8895 5.73361 47.0328 4.94468C49.1761 4.15574 43.5359 20.1598 42.15 22.3495C40.7642 24.5392 43.3909 17.6803 41.6505 16.5855C40.2582 15.7096 41.0704 18.0131 41.6505 19.2743C42.0639 20.514 45.9209 16.4245 46.2754 16.3278C46.6299 16.2312 46.3399 18.2116 47.5807 18.5175C48.8215 18.8235 49.0794 16.988 49.869 17.1329C50.6586 17.2778 49.6595 19.2743 50.5619 19.2743C51.4644 19.2743 51.561 16.5855 52.6085 16.5855C53.656 16.5855 51.2226 19.9183 52.6085 20.6589C53.9944 21.3996 54.784 17.1651 55.8314 17.4227C56.8789 17.6803 56.1215 20.2081 58.023 20.6589C59.9246 21.1097 64.4528 4.23625 67.289 4.59046C70.1252 4.94468 61.4071 19.2582 62.5029 20.1598C63.3796 20.8811 64.3561 18.0184 65.597 17.6642C67.2239 17.1998 64.5656 19.9666 66.2416 19.9666C67.9133 19.9666 66.8056 19.2743 68.1109 19.0328C69.4261 18.7894 67.7402 20.353 68.9327 20.6589C70.1252 20.9648 70.1735 19.2743 70.8181 19.2743C71.4627 19.2743 70.4636 20.9165 71.5594 20.9648C72.6552 21.0131 72.1718 19.1616 73.4609 19.6607C74.7501 20.1598 73.4609 21.0453 75.1046 21.303C76.7484 21.5606 79.3751 20.5462 81.7117 21.303C83.581 21.9083 84.6822 21.3298 84.9991 20.9648" stroke="black" stroke-width="1.44906" stroke-linecap="round" stroke-linejoin="round"/>
<path d="M14.7565 1C12.71 8.35801 4.52846 28.3497 1.47741 32.831C-0.440243 34.7148 3.86327 20.2886 6.52206 17.3744C7.81068 15.962 8.71505 17.4549 8.0275 19.1133C10.0418 17.7125 10.744 17.4227 11.0985 17.3744C11.453 17.3261 11.6142 18.598 12.146 18.598C12.6777 18.598 13.1612 17.3744 14.112 17.3744C15.0627 17.3744 14.9338 18.598 15.9813 18.598C17.0287 18.598 18.5113 15.9736 19.6877 15.8931C20.864 15.8126 19.4717 17.9344 20.3806 18.598C21.2186 19.2099 25.779 18.9361 27.181 18.3726" stroke="black" stroke-width="1.44906" stroke-linecap="round" stroke-linejoin="round"/>
</svg>
